<svg width="273" height="47" viewBox="0 0 273 47" fill="none" xmlns="http://www.w3.org/2000/svg">
<path d="M8.316 36V14.508H0.972V10.8H20.304V14.508H12.924V36H8.316ZM23.6095 36V10.08H28.2175V20.88C28.8175 19.896 29.6215 19.128 30.6295 18.576C31.6615 18 32.8375 17.712 34.1575 17.712C36.3655 17.712 38.0695 18.408 39.2695 19.8C40.4935 21.192 41.1055 23.232 41.1055 25.92V36H36.5335V26.352C36.5335 24.816 36.2215 23.64 35.5975 22.824C34.9975 22.008 34.0375 21.6 32.7175 21.6C31.4215 21.6 30.3415 22.056 29.4775 22.968C28.6375 23.88 28.2175 25.152 28.2175 26.784V36H23.6095ZM54.1879 36.432C52.3879 36.432 50.7919 36.048 49.3999 35.28C48.0079 34.512 46.9159 33.432 46.1239 32.04C45.3319 30.648 44.9359 29.04 44.9359 27.216C44.9359 25.368 45.3199 23.724 46.0879 22.284C46.8799 20.844 47.9599 19.728 49.3279 18.936C50.7199 18.12 52.3519 17.712 54.2239 17.712C55.9759 17.712 57.5239 18.096 58.8679 18.864C60.2119 19.632 61.2559 20.688 61.9999 22.032C62.7679 23.352 63.1519 24.828 63.1519 26.46C63.1519 26.724 63.1399 27 63.1159 27.288C63.1159 27.576 63.1039 27.876 63.0799 28.188H49.5079C49.6039 29.58 50.0839 30.672 50.9479 31.464C51.8359 32.256 52.9039 32.652 54.1519 32.652C55.0879 32.652 55.8679 32.448 56.4919 32.04C57.1399 31.608 57.6199 31.056 57.9319 30.384H62.6119C62.2759 31.512 61.7119 32.544 60.9199 33.48C60.1519 34.392 59.1919 35.112 58.0399 35.64C56.9119 36.168 55.6279 36.432 54.1879 36.432ZM54.2239 21.456C53.0959 21.456 52.0999 21.78 51.2359 22.428C50.3719 23.052 49.8199 24.012 49.5799 25.308H58.4719C58.3999 24.132 57.9679 23.196 57.1759 22.5C56.3839 21.804 55.3999 21.456 54.2239 21.456ZM67.1355 36V10.8H72.6075L80.6355 26.784L88.5555 10.8H94.0275V36H89.4195V18.612L82.3995 32.4H78.7635L71.7435 18.612V36H67.1355ZM107.377 36.432C105.649 36.432 104.089 36.036 102.697 35.244C101.329 34.452 100.237 33.36 99.4208 31.968C98.6288 30.552 98.2328 28.92 98.2328 27.072C98.2328 25.224 98.6408 23.604 99.4568 22.212C100.273 20.796 101.365 19.692 102.733 18.9C104.125 18.108 105.685 17.712 107.413 17.712C109.117 17.712 110.653 18.108 112.021 18.9C113.413 19.692 114.505 20.796 115.297 22.212C116.113 23.604 116.521 25.224 116.521 27.072C116.521 28.92 116.113 30.552 115.297 31.968C114.505 33.36 113.413 34.452 112.021 35.244C110.629 36.036 109.081 36.432 107.377 36.432ZM107.377 32.436C108.577 32.436 109.621 31.992 110.509 31.104C111.397 30.192 111.841 28.848 111.841 27.072C111.841 25.296 111.397 23.964 110.509 23.076C109.621 22.164 108.589 21.708 107.413 21.708C106.189 21.708 105.133 22.164 104.245 23.076C103.381 23.964 102.949 25.296 102.949 27.072C102.949 28.848 103.381 30.192 104.245 31.104C105.133 31.992 106.177 32.436 107.377 32.436ZM124.586 36L118.034 18.144H122.858L127.394 31.644L131.93 18.144H136.754L130.166 36H124.586ZM142.144 15.372C141.304 15.372 140.608 15.12 140.056 14.616C139.528 14.112 139.264 13.476 139.264 12.708C139.264 11.94 139.528 11.316 140.056 10.836C140.608 10.332 141.304 10.08 142.144 10.08C142.984 10.08 143.668 10.332 144.196 10.836C144.748 11.316 145.024 11.94 145.024 12.708C145.024 13.476 144.748 14.112 144.196 14.616C143.668 15.12 142.984 15.372 142.144 15.372ZM139.84 36V18.144H144.448V36H139.84ZM157.934 36.432C156.134 36.432 154.538 36.048 153.146 35.28C151.754 34.512 150.662 33.432 149.87 32.04C149.078 30.648 148.682 29.04 148.682 27.216C148.682 25.368 149.066 23.724 149.834 22.284C150.626 20.844 151.706 19.728 153.074 18.936C154.466 18.12 156.098 17.712 157.97 17.712C159.722 17.712 161.27 18.096 162.614 18.864C163.958 19.632 165.002 20.688 165.746 22.032C166.514 23.352 166.898 24.828 166.898 26.46C166.898 26.724 166.886 27 166.862 27.288C166.862 27.576 166.85 27.876 166.826 28.188H153.254C153.35 29.58 153.83 30.672 154.694 31.464C155.582 32.256 156.65 32.652 157.898 32.652C158.834 32.652 159.614 32.448 160.238 32.04C160.886 31.608 161.366 31.056 161.678 30.384H166.358C166.022 31.512 165.458 32.544 164.666 33.48C163.898 34.392 162.938 35.112 161.786 35.64C160.658 36.168 159.374 36.432 157.934 36.432ZM157.97 21.456C156.842 21.456 155.846 21.78 154.982 22.428C154.118 23.052 153.566 24.012 153.326 25.308H162.218C162.146 24.132 161.714 23.196 160.922 22.5C160.13 21.804 159.146 21.456 157.97 21.456ZM181.898 36.432C179.522 36.432 177.446 35.892 175.67 34.812C173.894 33.732 172.514 32.232 171.53 30.312C170.546 28.368 170.054 26.112 170.054 23.544C170.054 20.952 170.558 18.672 171.566 16.704C172.598 14.712 174.05 13.164 175.922 12.06C177.818 10.932 180.062 10.368 182.654 10.368C185.606 10.368 188.054 11.076 189.998 12.492C191.942 13.908 193.202 15.864 193.778 18.36H188.63C188.246 17.184 187.55 16.272 186.542 15.624C185.534 14.952 184.238 14.616 182.654 14.616C180.134 14.616 178.19 15.42 176.822 17.028C175.454 18.612 174.77 20.796 174.77 23.58C174.77 26.364 175.442 28.524 176.786 30.06C178.154 31.572 180.002 32.328 182.33 32.328C184.61 32.328 186.326 31.716 187.478 30.492C188.654 29.244 189.362 27.612 189.602 25.596H183.23V22.14H194.246V36H189.998L189.638 32.688C188.822 33.888 187.802 34.812 186.578 35.46C185.354 36.108 183.794 36.432 181.898 36.432ZM205.313 36.432C203.081 36.432 201.353 35.736 200.129 34.344C198.929 32.952 198.329 30.912 198.329 28.224V18.144H202.901V27.792C202.901 29.328 203.213 30.504 203.837 31.32C204.461 32.136 205.445 32.544 206.789 32.544C208.061 32.544 209.105 32.088 209.921 31.176C210.761 30.264 211.181 28.992 211.181 27.36V18.144H215.789V36H211.721L211.361 32.976C210.809 34.032 210.005 34.872 208.949 35.496C207.917 36.12 206.705 36.432 205.313 36.432ZM223.004 15.372C222.164 15.372 221.468 15.12 220.916 14.616C220.388 14.112 220.124 13.476 220.124 12.708C220.124 11.94 220.388 11.316 220.916 10.836C221.468 10.332 222.164 10.08 223.004 10.08C223.844 10.08 224.528 10.332 225.056 10.836C225.608 11.316 225.884 11.94 225.884 12.708C225.884 13.476 225.608 14.112 225.056 14.616C224.528 15.12 223.844 15.372 223.004 15.372ZM220.7 36V18.144H225.308V36H220.7ZM238.325 36.432C236.645 36.432 235.145 36.024 233.825 35.208C232.505 34.392 231.461 33.276 230.693 31.86C229.925 30.444 229.541 28.836 229.541 27.036C229.541 25.236 229.925 23.64 230.693 22.248C231.461 20.832 232.505 19.728 233.825 18.936C235.145 18.12 236.645 17.712 238.325 17.712C239.669 17.712 240.845 17.964 241.853 18.468C242.861 18.972 243.677 19.68 244.301 20.592V10.08H248.909V36H244.805L244.301 33.444C243.725 34.236 242.957 34.932 241.997 35.532C241.061 36.132 239.837 36.432 238.325 36.432ZM239.297 32.4C240.785 32.4 241.997 31.908 242.933 30.924C243.893 29.916 244.373 28.632 244.373 27.072C244.373 25.512 243.893 24.24 242.933 23.256C241.997 22.248 240.785 21.744 239.297 21.744C237.833 21.744 236.621 22.236 235.661 23.22C234.701 24.204 234.221 25.476 234.221 27.036C234.221 28.596 234.701 29.88 235.661 30.888C236.621 31.896 237.833 32.4 239.297 32.4ZM262.278 36.432C260.478 36.432 258.882 36.048 257.49 35.28C256.098 34.512 255.006 33.432 254.214 32.04C253.422 30.648 253.026 29.04 253.026 27.216C253.026 25.368 253.41 23.724 254.178 22.284C254.97 20.844 256.05 19.728 257.418 18.936C258.81 18.12 260.442 17.712 262.314 17.712C264.066 17.712 265.614 18.096 266.958 18.864C268.302 19.632 269.346 20.688 270.09 22.032C270.858 23.352 271.242 24.828 271.242 26.46C271.242 26.724 271.23 27 271.206 27.288C271.206 27.576 271.194 27.876 271.17 28.188H257.598C257.694 29.58 258.174 30.672 259.038 31.464C259.926 32.256 260.994 32.652 262.242 32.652C263.178 32.652 263.958 32.448 264.582 32.04C265.23 31.608 265.71 31.056 266.022 30.384H270.702C270.366 31.512 269.802 32.544 269.01 33.48C268.242 34.392 267.282 35.112 266.13 35.64C265.002 36.168 263.718 36.432 262.278 36.432ZM262.314 21.456C261.186 21.456 260.19 21.78 259.326 22.428C258.462 23.052 257.91 24.012 257.67 25.308H266.562C266.49 24.132 266.058 23.196 265.266 22.5C264.474 21.804 263.49 21.456 262.314 21.456Z" fill="#F9F9F9"/>
<circle cx="107.308" cy="27.1012" r="9.45884" fill="#00DF5E"/>
</svg>
